<svg xmlns="http://www.w3.org/2000/svg" width="24" height="24" viewBox="0 0 24 24" fill="none" stroke="#22C55E" stroke-width="1.8" stroke-linecap="round" stroke-linejoin="round">
  <circle cx="13.5" cy="6.5" r=".5" fill="#22C55E"/>
  <circle cx="17.5" cy="10.5" r=".5" fill="#22C55E"/>
  <circle cx="8.5" cy="7.5" r=".5" fill="#22C55E"/>
  <circle cx="6.5" cy="12.5" r=".5" fill="#22C55E"/>
  <path d="M12 22a10 10 0 1 0-7.1-2.9c1.1 1.1 2.7 1.2 3.8.2l.8-.8c.7-.7.7-1.8.1-2.5a2 2 0 0 1 1.5-3.3H13a3 3 0 0 1 3 3v1.2a3 3 0 0 0 3 3h.4"/>
</svg>
